<svg width="175" height="104" viewBox="0 0 175 104" fill="none" xmlns="http://www.w3.org/2000/svg">
<path d="M20.98 0.999997C26.3933 0.999997 30.5467 2.02666 33.44 4.08C36.38 6.08666 37.85 9.26 37.85 13.6C37.85 14.0667 37.7333 14.65 37.5 15.35C37.3133 16.05 36.9867 16.7967 36.52 17.59C36.0533 18.3367 35.4467 19.0833 34.7 19.83C33.9533 20.53 33.0433 21.1367 31.97 21.65C31.4567 21.93 30.85 22.14 30.15 22.28C29.45 22.3733 28.82 22.4433 28.26 22.49V22.63C28.82 22.5833 29.45 22.56 30.15 22.56C30.8967 22.5133 31.55 22.5833 32.11 22.77C33.6967 23.19 35.05 23.82 36.17 24.66C37.29 25.5 38.2 26.48 38.9 27.6C39.6467 28.6733 40.1833 29.8633 40.51 31.17C40.8367 32.4767 41 33.83 41 35.23C41 40.4567 39.4133 44.2367 36.24 46.57C33.0667 48.8567 28.68 50 23.08 50H0.96V0.999997H20.98ZM7.82 43.56H23.5C24.9467 43.56 26.3233 43.3967 27.63 43.07C28.9367 42.6967 30.08 42.16 31.06 41.46C32.04 40.7133 32.81 39.8033 33.37 38.73C33.9767 37.61 34.28 36.3267 34.28 34.88C34.28 32.5 33.4633 30.75 31.83 29.63C30.2433 28.4633 28.0267 27.88 25.18 27.88H7.82V43.56ZM7.82 22.21H24.2C27 22.21 28.96 21.58 30.08 20.32C31.2467 19.0133 31.83 17.1933 31.83 14.86C31.83 13.46 31.5267 12.2933 30.92 11.36C30.36 10.38 29.59 9.61 28.61 9.05C27.6767 8.44333 26.58 8 25.32 7.72C24.06 7.44 22.7533 7.3 21.4 7.3H7.82V22.21ZM44.9266 0.0199968H51.7866V50H44.9266V0.0199968ZM63.4044 6.95V0.999997H56.3344V6.95H63.4044ZM56.4744 15H63.2644V50H56.4744V15ZM67.6137 15H74.4737V22.21C74.4737 22.91 74.4037 23.7033 74.2637 24.59C74.1703 25.43 74.0537 26.2 73.9137 26.9L74.0537 26.97C74.1937 26.27 74.357 25.5 74.5437 24.66C74.777 23.82 75.0803 23.0733 75.4537 22.42C76.9003 19.62 78.767 17.59 81.0537 16.33C83.3403 15.07 85.6737 14.44 88.0537 14.44C90.247 14.44 92.0903 14.93 93.5837 15.91C95.1237 16.89 96.337 18.1967 97.2237 19.83C98.157 21.4633 98.8103 23.3533 99.1837 25.5C99.6037 27.6 99.8137 29.8167 99.8137 32.15V50H92.9537V32.15C92.9537 28.79 92.347 26.1533 91.1337 24.24C89.9203 22.28 88.1237 21.3 85.7437 21.3C84.857 21.3 83.7603 21.51 82.4537 21.93C81.1937 22.3033 79.957 23.0733 78.7437 24.24C77.577 25.36 76.5737 26.9467 75.7337 29C74.8937 31.0067 74.4737 33.6433 74.4737 36.91V50H67.6137V15ZM104.118 50V0.999997H111.048L110.768 28.79C110.768 29.5833 110.651 30.4467 110.418 31.38C110.231 32.2667 109.951 33.06 109.578 33.76L109.718 33.83C110.044 33.13 110.464 32.4067 110.978 31.66C111.538 30.8667 112.144 30.2133 112.798 29.7L129.808 15H139.398L123.438 28.93L140.448 49.93H138.418V50L138.348 49.93H131.768L118.328 33.13L111.048 39.29V50H104.118ZM146.643 38.73C146.97 41.11 148.02 42.7667 149.793 43.7C151.566 44.5867 154.016 45.03 157.143 45.03C160.503 45.03 163.046 44.54 164.773 43.56C166.5 42.58 167.363 40.9467 167.363 38.66C167.363 37.54 166.686 36.7467 165.333 36.28C164.026 35.8133 162.393 35.4633 160.433 35.23C158.473 34.95 156.326 34.6933 153.993 34.46C151.66 34.18 149.513 33.7367 147.553 33.13C145.593 32.5233 143.936 31.6133 142.583 30.4C141.276 29.1867 140.623 27.5067 140.623 25.36C140.623 23.68 140.926 22.2567 141.533 21.09C142.186 19.8767 143.003 18.8733 143.983 18.08C144.963 17.2867 146.06 16.6567 147.273 16.19C148.533 15.6767 149.77 15.3033 150.983 15.07C152.196 14.8367 153.363 14.6967 154.483 14.65C155.603 14.5567 156.513 14.51 157.213 14.51C158.566 14.51 160.106 14.65 161.833 14.93C163.606 15.1633 165.286 15.63 166.873 16.33C168.506 17.03 169.906 17.9867 171.073 19.2C172.286 20.4133 173.033 22 173.313 23.96L167.083 24.87C166.71 22.91 165.706 21.6033 164.073 20.95C162.486 20.25 160.153 19.9 157.073 19.9C153.9 19.9 151.496 20.2967 149.863 21.09C148.276 21.8833 147.483 23.3767 147.483 25.57C147.483 26.69 148.136 27.5067 149.443 28.02C150.796 28.4867 152.453 28.86 154.413 29.14C156.373 29.42 158.52 29.6767 160.853 29.91C163.186 30.1433 165.333 30.5633 167.293 31.17C169.253 31.7767 170.886 32.6633 172.193 33.83C173.546 34.9967 174.223 36.6533 174.223 38.8C174.223 41.46 173.523 43.5833 172.123 45.17C170.77 46.71 169.136 47.8767 167.223 48.67C165.356 49.4167 163.466 49.8833 161.553 50.07C159.64 50.3033 158.123 50.42 157.003 50.42C156.35 50.42 155.486 50.3733 154.413 50.28C153.34 50.1867 152.196 50.0233 150.983 49.79C149.77 49.51 148.533 49.1367 147.273 48.67C146.06 48.2033 144.916 47.5733 143.843 46.78C142.816 45.9867 141.953 45.03 141.253 43.91C140.553 42.79 140.133 41.46 139.993 39.92L146.643 38.73Z" fill="url(#paint0_linear_61_8)"/>
<path d="M16.168 91.348C14.0413 91.348 12.0113 91.058 10.078 90.478C8.14467 89.8593 6.44333 88.9313 4.974 87.694C3.54333 86.4567 2.40267 84.91 1.552 83.054C0.701333 81.198 0.276 79.0133 0.276 76.5C0.276 73.9867 0.701333 71.802 1.552 69.946C2.40267 68.09 3.54333 66.5433 4.974 65.306C6.44333 64.0687 8.14467 63.16 10.078 62.58C12.0113 61.9613 14.0413 61.652 16.168 61.652C18.2947 61.652 20.286 61.9613 22.142 62.58C24.0367 63.1987 25.68 64.1267 27.072 65.364C28.464 66.5627 29.566 68.09 30.378 69.946C31.19 71.802 31.596 73.9867 31.596 76.5C31.596 76.9253 31.596 77.2153 31.596 77.37C31.596 77.486 31.5573 77.7373 31.48 78.124H6.192C6.61733 81.024 7.73867 83.1893 9.556 84.62C11.3733 86.0507 13.616 86.7467 16.284 86.708C18.5267 86.6693 20.4793 86.244 22.142 85.432C23.8433 84.62 25.1 83.1313 25.912 80.966L31.132 81.662C30.5907 83.402 29.8173 84.8907 28.812 86.128C27.8453 87.3653 26.7047 88.3707 25.39 89.144C24.0753 89.8787 22.6253 90.4393 21.04 90.826C19.4933 91.174 17.8693 91.348 16.168 91.348ZM16.284 66.118C15.008 66.118 13.732 66.3693 12.456 66.872C11.18 67.336 10.0587 68.0707 9.092 69.076C8.12533 70.0427 7.352 71.28 6.772 72.788C6.23067 74.296 6.03733 76.0747 6.192 78.124C6.424 77.3507 6.67533 76.732 6.946 76.268C7.25533 75.804 7.60333 75.456 7.99 75.224C8.41533 74.992 8.87933 74.8373 9.382 74.76C9.92333 74.6827 10.542 74.644 11.238 74.644H26.202C25.7767 71.6667 24.6747 69.5207 22.896 68.206C21.156 66.8527 18.952 66.1567 16.284 66.118ZM57.6276 83.866C57.2409 85.0647 56.6416 86.1087 55.8296 86.998C55.0176 87.8873 54.0702 88.622 52.9876 89.202C51.9436 89.782 50.8029 90.2267 49.5656 90.536C48.3282 90.8067 47.0909 90.942 45.8536 90.942C44.4229 90.942 43.0309 90.768 41.6776 90.42C40.3242 90.072 39.1256 89.55 38.0816 88.854C37.0376 88.158 36.1869 87.3073 35.5296 86.302C34.9109 85.258 34.6016 84.0787 34.6016 82.764C34.6016 80.6373 35.1622 79.0327 36.2836 77.95C37.4436 76.8287 38.8742 76.0167 40.5756 75.514C42.3156 75.0113 44.1716 74.7407 46.1436 74.702C48.1542 74.6247 50.0102 74.5667 51.7116 74.528C53.4516 74.4507 54.8822 74.296 56.0036 74.064C57.1249 73.832 57.6662 73.31 57.6276 72.498C57.5502 70.294 56.7962 68.728 55.3656 67.8C53.9736 66.872 51.8856 66.408 49.1016 66.408C47.9802 66.408 46.9169 66.4853 45.9116 66.64C44.9449 66.7947 44.0749 67.0847 43.3016 67.51C42.5669 67.9353 41.9482 68.5153 41.4456 69.25C40.9429 69.9847 40.6142 70.932 40.4596 72.092L35.4716 71.396C35.6649 69.656 36.1869 68.1673 37.0376 66.93C37.8882 65.6927 38.9516 64.7067 40.2276 63.972C41.5036 63.1987 42.9149 62.6573 44.4616 62.348C46.0082 62 47.5549 61.826 49.1016 61.826C50.8416 61.826 52.5429 62.0193 54.2056 62.406C55.9069 62.7927 57.4149 63.4307 58.7296 64.32C60.0442 65.1707 61.0882 66.3307 61.8616 67.8C62.6736 69.2307 63.0796 71.0287 63.0796 73.194V83.75C63.0796 84.5233 63.2149 85.026 63.4856 85.258C63.7562 85.49 64.2009 85.606 64.8196 85.606H66.1536V91H62.4416C60.9722 91 59.7929 90.5553 58.9036 89.666C58.0529 88.7767 57.6276 87.694 57.6276 86.418V83.866ZM40.1696 82.648C40.1696 83.4213 40.3629 84.098 40.7496 84.678C41.1362 85.2193 41.6389 85.6833 42.2576 86.07C42.9149 86.418 43.6689 86.6887 44.5196 86.882C45.4089 87.0367 46.3176 87.114 47.2456 87.114C48.4442 87.114 49.6622 86.9787 50.8996 86.708C52.1369 86.3987 53.2389 85.9733 54.2056 85.432C55.2109 84.8907 56.0229 84.2333 56.6416 83.46C57.2989 82.648 57.6276 81.7393 57.6276 80.734V76.906C56.8156 77.37 55.8102 77.6793 54.6116 77.834C53.4129 77.9887 52.1562 78.0853 50.8416 78.124C49.5656 78.1627 48.2896 78.2013 47.0136 78.24C45.7376 78.2787 44.5969 78.4333 43.5916 78.704C42.5862 78.9747 41.7549 79.4193 41.0976 80.038C40.4789 80.618 40.1696 81.488 40.1696 82.648ZM74.4344 81.662C74.7051 83.634 75.5751 85.0067 77.0444 85.78C78.5138 86.5147 80.5438 86.882 83.1344 86.882C85.9184 86.882 88.0258 86.476 89.4564 85.664C90.8871 84.852 91.6024 83.4987 91.6024 81.604C91.6024 80.676 91.0418 80.0187 89.9204 79.632C88.8378 79.2453 87.4844 78.9553 85.8604 78.762C84.2364 78.53 82.4578 78.3173 80.5244 78.124C78.5911 77.892 76.8124 77.5247 75.1884 77.022C73.5644 76.5193 72.1918 75.7653 71.0704 74.76C69.9878 73.7547 69.4464 72.3627 69.4464 70.584C69.4464 69.192 69.6978 68.0127 70.2004 67.046C70.7418 66.0407 71.4184 65.2093 72.2304 64.552C73.0424 63.8947 73.9511 63.3727 74.9564 62.986C76.0004 62.5607 77.0251 62.2513 78.0304 62.058C79.0358 61.8647 80.0024 61.7487 80.9304 61.71C81.8584 61.6327 82.6124 61.594 83.1924 61.594C84.3138 61.594 85.5898 61.71 87.0204 61.942C88.4898 62.1353 89.8818 62.522 91.1964 63.102C92.5498 63.682 93.7098 64.4747 94.6764 65.48C95.6818 66.4853 96.3004 67.8 96.5324 69.424L91.3704 70.178C91.0611 68.554 90.2298 67.4713 88.8764 66.93C87.5618 66.35 85.6284 66.06 83.0764 66.06C80.4471 66.06 78.4558 66.3887 77.1024 67.046C75.7878 67.7033 75.1304 68.9407 75.1304 70.758C75.1304 71.686 75.6718 72.3627 76.7544 72.788C77.8758 73.1747 79.2484 73.484 80.8724 73.716C82.4964 73.948 84.2751 74.1607 86.2084 74.354C88.1418 74.5473 89.9204 74.8953 91.5444 75.398C93.1684 75.9007 94.5218 76.6353 95.6044 77.602C96.7258 78.5687 97.2864 79.9413 97.2864 81.72C97.2864 83.924 96.7064 85.6833 95.5464 86.998C94.4251 88.274 93.0718 89.2407 91.4864 89.898C89.9398 90.5167 88.3738 90.9033 86.7884 91.058C85.2031 91.2513 83.9464 91.348 83.0184 91.348C82.4771 91.348 81.7618 91.3093 80.8724 91.232C79.9831 91.1547 79.0358 91.0193 78.0304 90.826C77.0251 90.594 76.0004 90.2847 74.9564 89.898C73.9511 89.5113 73.0038 88.9893 72.1144 88.332C71.2638 87.6747 70.5484 86.882 69.9684 85.954C69.3884 85.026 69.0404 83.924 68.9244 82.648L74.4344 81.662ZM97.8556 62H103.946L111.428 81.024C111.698 81.6427 111.892 82.3387 112.008 83.112C112.124 83.8853 112.182 84.6007 112.182 85.258H112.298C112.298 84.6007 112.356 83.8853 112.472 83.112C112.626 82.3387 112.839 81.6427 113.11 81.024L120.65 62H126.74L113.458 95.118C112.878 96.742 112.162 98.076 111.312 99.12C110.461 100.164 109.572 100.995 108.644 101.614C107.716 102.233 106.768 102.658 105.802 102.89C104.874 103.122 104.004 103.238 103.192 103.238H98.0296V98.656H100.988C101.336 98.656 101.819 98.598 102.438 98.482C103.056 98.366 103.694 98.1533 104.352 97.844C105.009 97.5347 105.628 97.1093 106.208 96.568C106.826 96.0653 107.271 95.408 107.542 94.596L109.05 89.956L97.8556 62Z" fill="#F2F2F3"/>
<defs>
<linearGradient id="paint0_linear_61_8" x1="87.5" y1="-6" x2="87.5" y2="95" gradientUnits="userSpaceOnUse">
<stop stop-color="#5435C2"/>
<stop offset="1" stop-color="#4425A4"/>
</linearGradient>
</defs>
</svg>
