<svg width="28" height="28" viewBox="0 0 28 28" fill="none" xmlns="http://www.w3.org/2000/svg">
<path d="M22.8035 16.6786L14.9285 24.5536C14.8066 24.676 14.6617 24.773 14.5022 24.8393C14.3426 24.9055 14.1716 24.9396 13.9989 24.9396C13.8261 24.9396 13.6551 24.9055 13.4955 24.8393C13.336 24.773 13.1911 24.676 13.0692 24.5536L5.19417 16.6786C4.9476 16.432 4.80908 16.0976 4.80908 15.7489C4.80908 15.4002 4.9476 15.0658 5.19417 14.8192C5.44074 14.5727 5.77516 14.4341 6.12386 14.4341C6.47256 14.4341 6.80698 14.5727 7.05355 14.8192L12.6875 20.4531V4.375C12.6875 4.0269 12.8257 3.69306 13.0719 3.44692C13.318 3.20078 13.6519 3.0625 14 3.0625C14.348 3.0625 14.6819 3.20078 14.928 3.44692C15.1742 3.69306 15.3125 4.0269 15.3125 4.375V20.4531L20.9464 14.8181C21.1929 14.5716 21.5273 14.433 21.876 14.433C22.2247 14.433 22.5592 14.5716 22.8057 14.8181C23.0523 15.0647 23.1908 15.3991 23.1908 15.7478C23.1908 16.0965 23.0523 16.4309 22.8057 16.6775L22.8035 16.6786Z" fill="#5E00F5"/>
</svg>
