<svg xmlns="http://www.w3.org/2000/svg" width="15" height="15" fill="none" viewBox="0 0 15 15"><g clip-path="url(#clip0_51_177)"><path fill="#8F0000" fill-rule="evenodd" d="M5.39062 2.8125V1.40625H9.60938V2.8125H5.39062ZM3.98438 2.8125V0.9375C3.98438 0.68886 4.08315 0.450403 4.25896 0.274587C4.43478 0.0987721 4.67323 0 4.92188 0L10.0781 0C10.3268 0 10.5652 0.0987721 10.741 0.274587C10.9169 0.450403 11.0156 0.68886 11.0156 0.9375V2.8125H13.3594C13.5459 2.8125 13.7247 2.88658 13.8566 3.01844C13.9884 3.1503 14.0625 3.32914 14.0625 3.51562C14.0625 3.70211 13.9884 3.88095 13.8566 4.01281C13.7247 4.14467 13.5459 4.21875 13.3594 4.21875H13.0172L12.3206 13.2684C12.2845 13.7395 12.0719 14.1795 11.7253 14.5006C11.3787 14.8216 10.9237 15 10.4513 15H4.54875C4.07632 15 3.62132 14.8216 3.27473 14.5006C2.92814 14.1795 2.71552 13.7395 2.67938 13.2684L1.98281 4.21875H1.64062C1.45414 4.21875 1.2753 4.14467 1.14344 4.01281C1.01158 3.88095 0.9375 3.70211 0.9375 3.51562C0.9375 3.32914 1.01158 3.1503 1.14344 3.01844C1.2753 2.88658 1.45414 2.8125 1.64062 2.8125H3.98438ZM3.39375 4.21875H11.6062L10.9181 13.1606C10.9092 13.2783 10.8561 13.3883 10.7695 13.4686C10.683 13.5489 10.5693 13.5936 10.4513 13.5938H4.54875C4.43069 13.5936 4.31702 13.5489 4.23047 13.4686C4.14391 13.3883 4.09085 13.2783 4.08188 13.1606L3.39375 4.21875Z" clip-rule="evenodd"/></g><defs><clipPath id="clip0_51_177"><rect width="15" height="15" fill="#fff"/></clipPath></defs></svg>